<?xml version="1.0" encoding="utf-8"?>
<!-- Generator: Adobe Illustrator 26.1.0, SVG Export Plug-In . SVG Version: 6.00 Build 0)  -->
<svg version="1.1" id="layer" xmlns="http://www.w3.org/2000/svg" xmlns:xlink="http://www.w3.org/1999/xlink" x="0px" y="0px"
	 viewBox="0 0 620 120.45" style="enable-background:new 0 0 620 120.45; width:150px;height:auto;" xml:space="preserve" fill="#424242">
<g>
	<path d="M70.13,15.81H54.73v98.77c5.27-1.55,10.54-3.93,15.39-7.03V15.81z M52.04,29.86H36.65v85.65h15.39V29.86z M96.27,92.37
		c7.13-10.75,10.85-22.83,10.85-35.13c0-16.63-6.82-31.1-18.8-40.09V1.86h-15.5v8.68c-22.01-6.61-47.73,3-62.41,25
		c-15.91,23.97-13.12,54.24,5.27,71.5C0.8,89.89,0.07,61.68,15.26,38.64c13.95-21.08,37.2-31.41,57.55-27.59v94.64
		c5.79-4.13,11.06-9.4,15.39-15.6V17.36c6.61,6.2,11.26,14.67,13.23,24.38c0.72,3.62,1.14,7.34,1.14,11.16
		c0,12.5-3.93,25.31-11.47,36.68C76.12,112.1,50.39,123.16,29,116.96C51.84,126.36,80.35,116.34,96.27,92.37 M33.86,43.91H18.46
		v64.68c0.93,1.03,1.86,1.96,2.89,2.79c2.17,1.76,4.86,3.1,7.96,4.13h4.55V43.91z M88.21,105.18c-4.34,4.13-9.09,7.65-14.15,10.33
		h14.15V105.18z"/>
	<path d="M169.42,82.14c-1.03-3-2.38-5.48-4.24-7.54c-1.76-2.07-3.93-3.62-6.51-4.75c-2.48-1.14-5.27-1.65-8.37-1.65
		c-3.1,0-5.89,0.52-8.37,1.65c-2.58,1.14-4.75,2.69-6.61,4.75s-3.2,4.65-4.24,7.65c-1.03,3-1.55,6.41-1.55,10.23
		s0.52,7.23,1.55,10.13c1.03,3,2.38,5.48,4.24,7.54c1.86,2.07,4.03,3.62,6.51,4.75s5.37,1.65,8.37,1.65c3.1,0,5.89-0.52,8.37-1.65
		c2.58-1.14,4.75-2.69,6.51-4.75c1.86-2.07,3.2-4.65,4.24-7.65c1.03-3,1.55-6.41,1.55-10.23C170.97,88.44,170.45,85.03,169.42,82.14
		 M160.53,98.67c-0.52,1.86-1.24,3.41-2.17,4.65c-0.93,1.24-2.07,2.17-3.41,2.89c-1.34,0.62-2.79,0.93-4.44,0.93
		c-1.65,0-3.1-0.31-4.44-1.03c-1.34-0.62-2.48-1.65-3.51-2.89c-1.03-1.24-1.76-2.79-2.27-4.65c-0.52-1.86-0.83-3.93-0.83-6.3
		c0-2.38,0.21-4.44,0.83-6.3c0.52-1.86,1.24-3.41,2.17-4.65c0.93-1.24,2.07-2.17,3.41-2.79c1.34-0.62,2.89-0.93,4.44-0.93
		c1.65,0,3.1,0.31,4.55,1.03c1.34,0.62,2.48,1.65,3.51,2.89c0.93,1.24,1.76,2.79,2.27,4.65c0.52,1.86,0.83,3.93,0.83,6.3
		C161.25,94.75,161.05,96.81,160.53,98.67 M195.04,68.19c-0.72-0.31-1.55-0.52-2.48-0.72c-0.93-0.21-2.07-0.31-3.31-0.31
		c-1.65,0-3,0.21-4.24,0.52c-1.24,0.31-2.27,0.93-3.1,1.65c-0.83,0.72-1.45,1.65-1.96,2.89c-0.41,1.14-0.62,2.58-0.62,4.24v4.24
		h-4.24v8.68h4.24v26.45h9.2V89.37h5.99v-8.68h-5.99V77.8c0-0.41,0.1-0.83,0.1-1.14c0.1-0.41,0.21-0.72,0.52-0.93
		c0.21-0.21,0.62-0.41,1.03-0.52c0.41-0.1,1.03-0.21,1.76-0.21c0.72,0,1.24,0.1,1.76,0.21c0.52,0.1,1.03,0.31,1.45,0.52v-7.54
		H195.04z M250.52,78.11v-9.3h-36.27v9.3h13.43v37.61h9.4V78.11H250.52z M285.45,115.72V95.88c0-2.48-0.21-4.75-0.72-6.72
		c-0.52-1.96-1.34-3.62-2.38-5.06c-1.03-1.34-2.38-2.48-4.03-3.2c-1.65-0.72-3.51-1.14-5.79-1.14c-0.93,0-1.86,0.1-2.58,0.21
		c-0.83,0.1-1.55,0.41-2.27,0.62c-0.72,0.31-1.34,0.62-1.96,1.03c-0.62,0.41-1.03,0.72-1.45,1.14V66.95l-9.3,4.65v44.22h9.3V96.61
		c0-1.55,0.1-2.79,0.41-3.82c0.31-1.03,0.62-1.86,1.14-2.48c0.52-0.62,1.14-1.03,1.86-1.34c0.72-0.31,1.55-0.41,2.58-0.41
		c2.17,0,3.72,0.62,4.65,1.96s1.34,3.41,1.34,6.2v19.01L285.45,115.72L285.45,115.72z M319.75,91.13c-0.62-2.17-1.65-4.13-2.89-5.79
		c-1.24-1.65-2.79-3-4.65-3.93s-3.93-1.45-6.3-1.45c-2.27,0-4.24,0.41-6.2,1.34c-1.86,0.93-3.51,2.17-4.96,3.82
		c-1.45,1.65-2.48,3.51-3.31,5.79c-0.83,2.27-1.24,4.75-1.24,7.44c0,1.96,0.21,3.62,0.52,5.27c0.31,1.55,0.83,3,1.45,4.24
		c0.62,1.24,1.34,2.48,2.27,3.41c0.93,1.03,1.96,1.96,3.1,2.69c1.14,0.83,2.48,1.45,4.03,1.86c1.55,0.52,3.31,0.72,5.17,0.72
		c1.14,0,2.38-0.1,3.51-0.41c1.14-0.21,2.38-0.62,3.41-1.14c1.14-0.52,2.17-1.14,3.1-1.76c0.93-0.72,1.76-1.55,2.48-2.48l-6.61-5.48
		c-0.31,0.41-0.72,0.72-1.14,1.03s-0.93,0.62-1.45,0.83c-0.52,0.21-1.14,0.41-1.65,0.52s-1.14,0.1-1.76,0.1
		c-0.83,0-1.65-0.1-2.48-0.31c-0.83-0.21-1.55-0.62-2.27-1.14c-0.62-0.52-1.24-1.24-1.65-2.07c-0.41-0.83-0.72-1.86-0.83-3.1h20.97
		c0-0.31,0.1-0.72,0.1-1.24c0-0.52,0-1.03,0-1.76C320.78,95.68,320.37,93.3,319.75,91.13 M299.7,94.23c0.1-0.93,0.31-1.76,0.62-2.48
		c0.31-0.72,0.72-1.45,1.14-1.96c0.52-0.52,1.03-1.03,1.76-1.34c0.62-0.31,1.45-0.52,2.27-0.52c1.03,0,1.96,0.21,2.69,0.52
		c0.72,0.41,1.34,0.83,1.86,1.45c0.52,0.62,0.93,1.24,1.14,2.07c0.31,0.72,0.41,1.55,0.52,2.27L299.7,94.23L299.7,94.23z M368,68.92
		l-11.78,19.63l-11.68-19.63H333.8l17.77,28.52v18.39h9.4V97.33l17.77-28.31H368V68.92z M403.54,91.13
		c-0.62-2.17-1.65-4.13-2.89-5.79c-1.24-1.65-2.79-3-4.65-3.93s-3.93-1.45-6.3-1.45c-2.27,0-4.34,0.41-6.2,1.34
		c-1.86,0.93-3.51,2.17-4.96,3.82c-1.45,1.65-2.48,3.51-3.31,5.79c-0.83,2.27-1.24,4.75-1.24,7.44c0,1.96,0.21,3.62,0.52,5.27
		c0.31,1.55,0.83,3,1.45,4.24c0.62,1.24,1.34,2.48,2.27,3.41c0.93,1.03,1.96,1.96,3.1,2.69c1.14,0.83,2.48,1.45,4.03,1.86
		c1.55,0.52,3.31,0.72,5.17,0.72c1.14,0,2.38-0.1,3.51-0.41c1.24-0.21,2.38-0.62,3.41-1.14c1.14-0.52,2.17-1.14,3.1-1.76
		c0.93-0.72,1.76-1.55,2.48-2.48l-6.61-5.48c-0.31,0.41-0.72,0.72-1.14,1.03s-0.93,0.62-1.45,0.83c-0.52,0.21-1.14,0.41-1.65,0.52
		s-1.14,0.1-1.76,0.1c-0.83,0-1.65-0.1-2.48-0.31c-0.83-0.21-1.55-0.62-2.27-1.14c-0.62-0.52-1.24-1.24-1.65-2.07
		c-0.41-0.83-0.72-1.86-0.83-3.1h20.97c0-0.31,0.1-0.72,0.1-1.24c0-0.52,0-1.03,0-1.76C404.58,95.68,404.27,93.3,403.54,91.13
		 M383.5,94.23c0.1-0.93,0.31-1.76,0.62-2.48c0.31-0.72,0.72-1.45,1.14-1.96c0.52-0.52,1.03-1.03,1.76-1.34
		c0.62-0.31,1.45-0.52,2.27-0.52c1.03,0,1.96,0.21,2.69,0.52c0.72,0.41,1.34,0.83,1.86,1.45c0.52,0.62,0.93,1.24,1.14,2.07
		c0.31,0.72,0.41,1.55,0.52,2.27L383.5,94.23L383.5,94.23z M438.05,115.72V92.16c0-1.96-0.31-3.72-1.03-5.27
		c-0.72-1.55-1.65-2.79-2.89-3.82c-1.24-1.03-2.79-1.86-4.55-2.38c-1.76-0.52-3.72-0.83-5.89-0.83c-2.58,0-4.86,0.31-6.82,0.83
		c-1.96,0.52-4.13,1.45-6.3,2.79l3.51,6.41c1.76-0.93,3.31-1.55,4.65-1.86c1.24-0.31,3-0.41,4.96-0.41c1.65,0,2.89,0.41,3.72,1.24
		c0.83,0.83,1.34,1.96,1.34,3.2v1.76c-0.72-0.41-1.65-0.72-2.69-0.93c-1.03-0.31-2.38-0.41-4.03-0.41c-1.96,0-3.82,0.21-5.58,0.72
		c-1.76,0.52-3.2,1.24-4.55,2.17c-1.24,0.93-2.27,2.17-3,3.62c-0.72,1.45-1.14,3.2-1.14,5.06c0,2.17,0.41,4.03,1.14,5.58
		c0.72,1.55,1.76,2.89,3,3.93c1.24,1.03,2.58,1.76,4.24,2.27c1.55,0.52,3.2,0.72,4.86,0.72c0.83,0,1.55-0.1,2.38-0.21
		c0.72-0.1,1.55-0.41,2.27-0.72c0.72-0.31,1.34-0.62,1.86-1.03c0.52-0.31,1.03-0.72,1.45-1.24v2.38L438.05,115.72L438.05,115.72z
		 M428.75,105.49c-0.21,0.41-0.62,0.83-1.03,1.24c-0.41,0.41-0.93,0.72-1.45,1.03c-0.52,0.31-1.14,0.52-1.86,0.72
		c-0.62,0.21-1.34,0.31-2.17,0.31c-0.93,0-1.86-0.1-2.48-0.41c-0.72-0.31-1.24-0.62-1.65-1.03c-0.41-0.41-0.72-0.93-0.93-1.45
		c-0.21-0.52-0.31-1.14-0.31-1.76c0-1.45,0.41-2.48,1.34-3.31c0.93-0.83,2.27-1.14,3.93-1.14c0.83,0,1.55,0,2.17,0.1
		c0.62,0.1,1.14,0.21,1.65,0.31c0.52,0.1,0.93,0.31,1.34,0.41c0.41,0.21,0.83,0.41,1.24,0.62v4.34H428.75z M467.7,82.35
		c-0.62-0.62-1.45-1.24-2.58-1.76c-1.14-0.52-2.38-0.72-3.93-0.72c-0.72,0-1.45,0.1-2.17,0.21s-1.34,0.41-1.96,0.72
		c-0.62,0.31-1.14,0.62-1.65,1.03s-0.93,0.72-1.34,1.14v-2.27h-9.3v35.13h9.3V96.81c0-2.58,0.41-4.44,1.34-5.79
		c0.93-1.24,2.48-1.86,4.65-1.86c1.03,0,2.07,0.21,2.89,0.62c0.93,0.41,1.76,0.93,2.48,1.65L467.7,82.35z"/>
	<path d="M165.8,39.57h-24.18V28.31h18.8v-9.09h-18.8v-8.06h23.14v-9.2h-32.55v46.91h33.58V39.57z M202.07,1.96l-11.78,19.63
		L178.61,1.96h-10.85l17.77,28.52v18.39h9.4V30.38l17.77-28.31h-10.64V1.96z M262.41,39.57h-24.18V28.31h18.8v-9.09h-18.8v-8.06
		h23.14v-9.2h-32.55v46.91h33.58L262.41,39.57L262.41,39.57z M299.29,48.77V28.93c0-2.48-0.21-4.75-0.72-6.72s-1.34-3.72-2.38-5.06
		s-2.38-2.48-4.03-3.2s-3.51-1.14-5.79-1.14c-0.83,0-1.76,0.1-2.48,0.21c-0.83,0.1-1.55,0.41-2.38,0.72
		c-0.72,0.31-1.34,0.62-1.96,1.03c-0.52,0.41-1.03,0.72-1.45,1.14v-2.27h-9.3v35.13h9.3V29.55c0-1.55,0.1-2.79,0.41-3.82
		c0.31-1.03,0.62-1.86,1.14-2.48c0.52-0.62,1.14-1.03,1.86-1.34c0.72-0.31,1.55-0.41,2.58-0.41c2.17,0,3.72,0.62,4.65,1.96
		c0.93,1.34,1.34,3.41,1.34,6.2v19.01h9.2V48.77z M326.57,38.02c-1.03,0.93-1.96,1.65-2.79,2.07c-0.83,0.41-1.65,0.62-2.48,0.62
		c-0.52,0-1.03-0.1-1.45-0.21c-0.41-0.1-0.83-0.31-1.03-0.62c-0.31-0.31-0.52-0.72-0.62-1.34c-0.1-0.52-0.21-1.24-0.21-2.07V22.32
		h8.47v-8.68h-8.47V0l-9.3,4.65v9.09h-5.89v8.68h5.89v16.63c0,1.55,0.21,3,0.72,4.24c0.41,1.24,1.03,2.38,1.86,3.31
		c0.83,0.93,1.76,1.65,3,2.17c1.14,0.52,2.48,0.83,3.82,0.83c1.45,0,2.79-0.21,4.13-0.62c1.24-0.41,2.27-0.93,3.1-1.55L326.57,38.02
		z M354.77,15.39c-0.62-0.62-1.45-1.24-2.58-1.76s-2.38-0.72-3.93-0.72c-0.72,0-1.45,0.1-2.17,0.21c-0.72,0.1-1.34,0.41-1.96,0.72
		c-0.62,0.31-1.24,0.62-1.65,1.03c-0.52,0.41-0.93,0.72-1.34,1.14v-2.27h-9.3v35.13h9.3V29.76c0-2.58,0.41-4.44,1.34-5.79
		c0.93-1.24,2.48-1.86,4.65-1.86c1.03,0,1.96,0.21,2.89,0.62c0.93,0.41,1.76,0.93,2.48,1.65L354.77,15.39z M385.15,24.18
		c-0.62-2.27-1.65-4.13-2.89-5.79c-1.24-1.65-2.79-3-4.65-3.93c-1.86-0.93-3.93-1.45-6.3-1.45c-2.27,0-4.34,0.41-6.2,1.34
		c-1.86,0.93-3.62,2.17-4.96,3.82c-1.45,1.65-2.48,3.51-3.31,5.79c-0.83,2.27-1.24,4.75-1.24,7.44c0,1.96,0.21,3.72,0.52,5.27
		c0.31,1.55,0.83,3,1.45,4.24c0.62,1.24,1.34,2.48,2.27,3.51c0.93,1.03,1.96,1.96,3.1,2.69c1.14,0.83,2.48,1.45,4.03,1.86
		c1.55,0.52,3.31,0.72,5.17,0.72c1.14,0,2.38-0.1,3.51-0.41c1.24-0.21,2.38-0.62,3.41-1.14c1.14-0.52,2.17-1.03,3.1-1.76
		c0.93-0.72,1.76-1.55,2.48-2.48l-6.61-5.48c-0.31,0.41-0.72,0.72-1.14,1.03c-0.41,0.31-0.93,0.62-1.45,0.83
		c-0.52,0.21-1.14,0.41-1.65,0.52s-1.14,0.1-1.76,0.1c-0.83,0-1.65-0.1-2.48-0.41c-0.83-0.21-1.55-0.62-2.27-1.14
		c-0.62-0.52-1.24-1.24-1.65-2.07c-0.41-0.83-0.72-1.86-0.83-3.1h20.97c0-0.31,0.1-0.72,0.1-1.24s0-1.03,0-1.76
		C386.08,28.72,385.77,26.35,385.15,24.18 M365.11,27.28c0.1-0.93,0.31-1.76,0.62-2.48c0.31-0.72,0.72-1.45,1.14-1.96
		c0.52-0.52,1.03-1.03,1.76-1.34c0.62-0.31,1.45-0.52,2.27-0.52c1.03,0,1.96,0.21,2.69,0.52s1.34,0.83,1.86,1.45
		c0.52,0.62,0.93,1.24,1.14,2.07c0.31,0.72,0.41,1.55,0.52,2.27L365.11,27.28L365.11,27.28z M420.69,23.14
		c-0.72-2.38-1.65-4.34-2.89-5.89c-1.24-1.55-2.69-2.69-4.34-3.41c-1.65-0.72-3.41-1.03-5.27-1.03c-1.45,0-2.79,0.21-4.03,0.72
		c-1.24,0.52-2.38,1.24-3.41,2.17v-2.17h-9.3v48.04l9.3-4.65V46.6c0.83,0.72,1.86,1.45,3.2,1.96c1.24,0.52,2.69,0.83,4.24,0.83
		c2.17,0,4.13-0.41,5.79-1.34c1.65-0.93,3.1-2.07,4.24-3.72c1.14-1.55,2.07-3.51,2.69-5.68c0.62-2.17,0.93-4.55,0.93-7.23
		C421.83,28.41,421.42,25.52,420.69,23.14 M410.98,38.54c-0.93,1.55-2.27,2.27-4.13,2.27c-0.72,0-1.34-0.1-1.96-0.21
		c-0.62-0.1-1.14-0.31-1.65-0.62c-0.52-0.31-1.03-0.52-1.34-0.93c-0.41-0.31-0.83-0.83-1.24-1.34V24.59
		c0.83-1.03,1.65-1.76,2.48-2.27c0.93-0.41,1.96-0.72,3.2-0.72c1.96,0,3.51,0.83,4.44,2.58c1.03,1.76,1.55,4.34,1.55,7.65
		C412.43,34.82,412.01,37.09,410.98,38.54 M450.04,15.39c-0.62-0.62-1.45-1.24-2.58-1.76c-1.14-0.52-2.38-0.72-3.93-0.72
		c-0.72,0-1.45,0.1-2.17,0.21c-0.72,0.1-1.34,0.41-1.96,0.72c-0.62,0.31-1.14,0.62-1.65,1.03c-0.52,0.41-0.93,0.72-1.34,1.14v-2.27
		h-9.3v35.13h9.3V29.76c0-2.58,0.41-4.44,1.34-5.79c0.93-1.24,2.48-1.86,4.65-1.86c1.03,0,2.07,0.21,2.89,0.62
		c0.93,0.41,1.76,0.93,2.48,1.65L450.04,15.39z M481.14,24.18c-0.62-2.27-1.65-4.13-2.89-5.79c-1.24-1.65-2.79-3-4.65-3.93
		c-1.86-0.93-3.93-1.45-6.3-1.45c-2.17,0-4.24,0.41-6.2,1.34c-1.86,0.93-3.51,2.17-4.96,3.82c-1.45,1.65-2.48,3.51-3.31,5.79
		c-0.83,2.27-1.24,4.75-1.24,7.44c0,1.96,0.21,3.72,0.52,5.27c0.31,1.55,0.83,3,1.45,4.24c0.62,1.24,1.34,2.48,2.27,3.51
		s1.96,1.96,3.1,2.69c1.14,0.83,2.48,1.45,4.03,1.86c1.55,0.52,3.31,0.72,5.27,0.72c1.14,0,2.38-0.1,3.51-0.41
		c1.14-0.21,2.38-0.62,3.41-1.14c1.14-0.52,2.17-1.03,3.1-1.76c0.93-0.72,1.76-1.55,2.48-2.48l-6.61-5.48
		c-0.31,0.41-0.72,0.72-1.14,1.03c-0.41,0.31-0.93,0.62-1.45,0.83c-0.52,0.21-1.14,0.41-1.65,0.52c-0.52,0.1-1.14,0.1-1.76,0.1
		c-0.83,0-1.65-0.1-2.48-0.41c-0.83-0.21-1.55-0.62-2.27-1.14c-0.62-0.52-1.24-1.24-1.65-2.07c-0.41-0.83-0.72-1.86-0.83-3.1h20.97
		c0-0.31,0.1-0.72,0.1-1.24s0-1.03,0-1.76C482.07,28.72,481.76,26.35,481.14,24.18 M461.09,27.28c0.1-0.93,0.31-1.76,0.52-2.48
		c0.31-0.72,0.72-1.45,1.14-1.96c0.52-0.52,1.03-1.03,1.76-1.34c0.62-0.31,1.45-0.52,2.27-0.52c1.03,0,1.96,0.21,2.69,0.52
		s1.34,0.83,1.86,1.45c0.52,0.62,0.93,1.24,1.14,2.07c0.31,0.72,0.41,1.55,0.52,2.27L461.09,27.28L461.09,27.28z M517.92,48.77
		V28.93c0-2.48-0.31-4.75-0.72-6.72c-0.52-1.96-1.34-3.72-2.38-5.06s-2.38-2.48-4.03-3.2c-1.65-0.72-3.51-1.14-5.79-1.14
		c-0.83,0-1.76,0.1-2.58,0.21c-0.83,0.1-1.55,0.41-2.38,0.72c-0.72,0.31-1.34,0.62-1.96,1.03c-0.52,0.41-1.03,0.72-1.45,1.14v-2.27
		h-9.3v35.13h9.3V29.55c0-1.55,0.1-2.79,0.41-3.82c0.31-1.03,0.62-1.86,1.14-2.48c0.52-0.62,1.14-1.03,1.86-1.34
		c0.72-0.31,1.55-0.41,2.58-0.41c2.17,0,3.72,0.62,4.65,1.96c0.93,1.34,1.34,3.41,1.34,6.2v19.01h9.3V48.77z M552.22,24.18
		c-0.62-2.27-1.65-4.13-2.89-5.79c-1.24-1.65-2.79-3-4.65-3.93c-1.86-0.93-3.93-1.45-6.3-1.45c-2.27,0-4.24,0.41-6.2,1.34
		c-1.86,0.93-3.51,2.17-4.96,3.82c-1.45,1.65-2.48,3.51-3.31,5.79c-0.83,2.27-1.24,4.75-1.24,7.44c0,1.96,0.21,3.72,0.52,5.27
		c0.31,1.55,0.83,3,1.45,4.24c0.62,1.24,1.34,2.48,2.27,3.51c0.93,1.03,1.96,1.96,3.1,2.69c1.14,0.83,2.48,1.45,4.03,1.86
		c1.55,0.52,3.31,0.72,5.17,0.72c1.14,0,2.38-0.1,3.51-0.41c1.24-0.21,2.38-0.62,3.41-1.14c1.14-0.52,2.17-1.03,3.1-1.76
		c0.93-0.72,1.76-1.55,2.48-2.48l-6.61-5.48c-0.31,0.41-0.72,0.72-1.14,1.03c-0.41,0.31-0.93,0.62-1.45,0.83
		c-0.52,0.21-1.14,0.41-1.65,0.52s-1.14,0.1-1.76,0.1c-0.83,0-1.65-0.1-2.48-0.41c-0.83-0.21-1.55-0.62-2.27-1.14
		c-0.62-0.52-1.24-1.24-1.65-2.07c-0.41-0.83-0.72-1.86-0.83-3.1h20.97c0-0.31,0.1-0.72,0.1-1.24s0-1.03,0-1.76
		C553.25,28.72,552.84,26.35,552.22,24.18 M532.18,27.28c0.1-0.93,0.31-1.76,0.52-2.48c0.31-0.72,0.72-1.45,1.14-1.96
		c0.52-0.52,1.03-1.03,1.76-1.34c0.62-0.31,1.45-0.52,2.27-0.52c1.03,0,1.96,0.21,2.69,0.52c0.72,0.31,1.34,0.83,1.86,1.45
		c0.52,0.62,0.93,1.24,1.14,2.07c0.31,0.72,0.41,1.55,0.52,2.27L532.18,27.28L532.18,27.28z M588.69,48.77V13.64h-9.3v19.22
		c0,2.58-0.41,4.55-1.34,5.89c-0.93,1.34-2.48,1.96-4.65,1.96s-3.72-0.62-4.65-1.96c-0.93-1.34-1.34-3.41-1.34-6.2V13.54h-9.3v19.84
		c0,5.27,1.14,9.3,3.31,11.99c2.17,2.69,5.48,4.13,9.71,4.13c1.86,0,3.51-0.31,4.86-0.93c1.45-0.62,2.48-1.34,3.31-2.17v2.38
		L588.69,48.77L588.69,48.77z M620,15.39c-0.62-0.62-1.45-1.24-2.58-1.76c-1.14-0.52-2.38-0.72-3.93-0.72
		c-0.72,0-1.45,0.1-2.17,0.21c-0.72,0.1-1.34,0.41-1.96,0.72c-0.62,0.31-1.14,0.62-1.65,1.03c-0.52,0.41-0.93,0.72-1.34,1.14v-2.27
		h-9.3v35.13h9.3V29.76c0-2.58,0.41-4.44,1.34-5.79c0.93-1.24,2.48-1.86,4.65-1.86c1.03,0,2.07,0.21,2.89,0.62
		c0.93,0.41,1.76,0.93,2.48,1.65L620,15.39z"/>
	<path d="M480.62,76.25c-0.21,0.21-0.52,0.21-0.83,0.21h-1.96v-2.17h1.96c0.31,0,0.62,0.1,0.83,0.31c0.21,0.21,0.31,0.41,0.31,0.83
		C481.03,75.84,480.83,76.15,480.62,76.25 M482.07,74.39c-0.1-0.31-0.31-0.52-0.52-0.72c-0.21-0.21-0.52-0.31-0.83-0.41
		c-0.31-0.1-0.62-0.1-0.93-0.1h-3.31v7.44h1.24V77.7h1.45l1.45,2.89h1.55l-1.55-3c0.52-0.1,0.83-0.41,1.14-0.72
		c0.31-0.41,0.41-0.83,0.41-1.45C482.27,75.01,482.17,74.7,482.07,74.39 M484.44,79.35c-0.31,0.72-0.72,1.34-1.24,1.86
		c-0.52,0.52-1.14,0.93-1.86,1.24c-0.72,0.31-1.45,0.41-2.27,0.41c-0.83,0-1.55-0.1-2.27-0.41s-1.34-0.72-1.86-1.24
		c-0.52-0.52-0.93-1.14-1.24-1.86c-0.31-0.72-0.41-1.45-0.41-2.27c0-0.83,0.1-1.55,0.41-2.27s0.72-1.34,1.24-1.86
		c0.52-0.52,1.14-0.93,1.86-1.24c0.72-0.31,1.45-0.41,2.27-0.41c0.83,0,1.55,0.1,2.27,0.41s1.34,0.72,1.86,1.24
		c0.52,0.52,0.93,1.14,1.24,1.86c0.31,0.72,0.41,1.45,0.41,2.27C484.86,77.9,484.75,78.63,484.44,79.35 M485.48,74.39
		c-0.31-0.83-0.83-1.55-1.45-2.17c-0.62-0.62-1.34-1.14-2.17-1.45c-0.83-0.31-1.76-0.52-2.69-0.52c-0.93,0-1.86,0.21-2.69,0.52
		c-0.83,0.31-1.55,0.83-2.17,1.45c-0.62,0.62-1.14,1.34-1.45,2.17c-0.31,0.83-0.52,1.76-0.52,2.69c0,0.93,0.21,1.86,0.52,2.69
		c0.31,0.83,0.83,1.55,1.45,2.17c0.62,0.62,1.34,1.14,2.17,1.45s1.76,0.52,2.69,0.52c0.93,0,1.86-0.21,2.69-0.52
		s1.55-0.83,2.17-1.45c0.62-0.62,1.14-1.34,1.45-2.17c0.31-0.83,0.52-1.76,0.52-2.69C485.99,76.04,485.79,75.22,485.48,74.39"/>
</g>
</svg>
