<svg xmlns="http://www.w3.org/2000/svg" width="109" height="20" viewBox="0 0 109 20">
    <g fill="none" fill-rule="evenodd">
        <g fill="#424242" fill-rule="nonzero">
            <g>
                <g>
                    <g>
                        <path d="M2.287 3.94C1.342 3.94.58 3.176.58 2.227S1.342.517 2.287.517c.944 0 1.705.762 1.705 1.71-.018.95-.779 1.712-1.705 1.712zm0-3.238c-.835 0-1.502.707-1.502 1.525 0 .837.686 1.526 1.502 1.526.815 0 1.5-.706 1.5-1.526 0-.818-.685-1.525-1.5-1.525zm.445 2.419l-.463-.763h-.317v.763h-.204V1.279h.594c.317 0 .575.223.575.54 0 .28-.185.447-.426.521l.482.782h-.241V3.12zm-.408-1.636h-.372v.669h.372c.222 0 .39-.13.39-.335 0-.185-.17-.334-.39-.334z" transform="translate(-281 -1821) translate(189 1811.5) translate(92 10) translate(104.806 4.93)"/>
                    </g>
                    <path d="M82.698 5.503c-.057 0-.076.02-.594.037-.538.018-1.521.037-3.562.037h-2.464c-2.022 0-3.02-.019-3.56-.037-.52-.018-.537-.037-.593-.037-.242 0-.242.15-.242.615v1.804c0 .092 0 .335.204.335.223 0 .26-.075.613-.8.221-.503.685-1.229 3.357-1.265.276.018.388.074.388.502v9.154c0 .763 0 1.302-.982 1.358-.409.037-.687.054-.687.333 0 .298.26.298.407.298.373 0 1.965-.073 2.3-.073.65 0 1.668.073 2.318.073.146 0 .408 0 .408-.298 0-.296-.279-.316-.687-.333-.984-.056-.984-.596-.984-1.397V6.843c0-.522.058-.615.63-.651 2.448.074 2.892.762 3.116 1.246.352.726.39.8.612.8.205 0 .205-.242.205-.334V6.098c.037-.445.037-.595-.203-.595zM61.508 14.712c-.185 0-.222.074-.575.763-.87 1.674-2.075 1.674-2.947 1.674-1.651 0-2.059-.223-2.059-1.62v-3.386c0-.594.148-.594 1.094-.594 1.612 0 2.15.017 2.576 1.544.092.372.222.465.37.465.243 0 .243-.28.243-.39 0-.152-.058-.839-.058-.989 0-.426.132-2.454.132-2.733 0-.223-.092-.28-.222-.28-.093 0-.205.037-.297.299-.353 1.042-.537 1.47-2.706 1.47-1.131 0-1.131-.15-1.131-.783V7.307c0-.986.073-1.117 1.055-1.117 2.781 0 3.263.745 3.487 1.266.352.725.389.8.61.8.204 0 .204-.242.204-.336V6.117c0-.446 0-.615-.241-.615-.056 0-.074.02-.593.037-.537.018-1.538.037-3.56.037h-.945c-1.668 0-2.503-.019-2.948-.037-.426-.018-.445-.037-.483-.037-.129 0-.389 0-.389.28 0 .297.279.316.705.335.982.056.982.595.982 1.396v8.317c0 .8 0 1.339-.982 1.394-.409.037-.705.056-.705.336 0 .296.26.296.408.296.13 0 .297-.017.613-.037.315-.02.796-.038 1.613-.038h.24c.112 0 1.04.019 2.15.038 1.131.018 2.503.037 3.503.037.577 0 .761-.222.78-.595.056-.726.278-1.99.278-2.25.022-.132-.035-.299-.202-.299zM93.524 14.712c-.187 0-.223.074-.576.763-.871 1.674-2.077 1.674-2.948 1.674-1.651 0-2.058-.223-2.058-1.62v-3.386c0-.594.15-.594 1.093-.594 1.613 0 2.152.017 2.577 1.544.092.372.223.465.37.465.242 0 .242-.28.242-.39 0-.152-.056-.839-.056-.989 0-.426.13-2.454.13-2.733 0-.223-.092-.28-.222-.28-.093 0-.203.037-.295.299-.353 1.042-.538 1.47-2.708 1.47-1.13 0-1.13-.15-1.13-.783V7.307c0-.986.074-1.117 1.056-1.117 2.782 0 3.261.745 3.485 1.266.354.725.389.8.612.8.203 0 .203-.242.203-.336V6.117c0-.446 0-.615-.24-.615-.056 0-.075.02-.595.037-.536.018-1.538.037-3.558.037h-.946c-1.669 0-2.502-.019-2.95-.037-.425-.018-.444-.037-.479-.037-.131 0-.392 0-.392.28 0 .297.279.316.705.335.981.056.981.595.981 1.396v8.317c0 .8 0 1.339-.981 1.394-.408.037-.705.056-.705.336 0 .296.26.296.408.296.13 0 .297-.017.613-.037.313-.018.796-.038 1.612-.038h.243c.11 0 1.035.019 2.15.038 1.13.018 2.503.037 3.504.037.574 0 .759-.222.778-.595.055-.726.278-1.99.278-2.25.02-.132-.034-.299-.201-.299zM67.68 10.246c-1.593-.668-2.76-1.172-2.76-2.586 0-.78.63-1.915 2.187-1.897 1.668.018 2.02 1.117 2.262 1.897.203.615.279.745.483.745.277 0 .277-.168.277-.596 0-1.768 0-1.952-.242-2.083-.277-.15-1.463-.465-2.612-.465-2.54 0-3.95 1.6-3.95 3.46 0 2.121 1.575 2.921 3.207 3.628 1.445.669 2.8 1.432 2.8 2.995 0 1.62-1.577 2.176-2.41 2.176-1.426 0-2.798-1.208-3.17-2.958-.036-.186-.074-.39-.24-.39-.243 0-.26.28-.26.351-.018.728.075 1.583.113 1.843.054.5.129.911.352 1.06.35.26 1.353.65 2.91.65 2.67 0 4.301-1.858 4.301-4.09-.021-2.27-2.116-3.255-3.247-3.74zM20.522 5.26c-3.837 0-6.749 2.773-6.749 6.382 0 3.833 3.225 6.436 6.693 6.436 3.373 0 6.655-2.734 6.655-6.622.018-3.461-2.892-6.195-6.6-6.195zm.11 12.28c-2.632 0-4.523-3.07-4.523-6.307 0-2.847 1.761-5.413 4.19-5.413 3.114 0 4.504 3.349 4.504 5.73 0 2.882-1.446 5.99-4.171 5.99zM12.53.703c-.036 0-.055.037-.815.055-.741.019-2.224.056-5.172.056h-.61c-2.8 0-3.839-.038-4.562-.056C.667.721.63.703.575.703c-.204 0-.575 0-.575.39 0 .391.427.429 1.02.485 1.409.093 1.409.855 1.409 2.027V15.382c0 .948 0 1.6-1.206 1.674-.5.056-.834.074-.834.41 0 .353.315.353.5.353.464 0 2.466-.092 2.873-.092.798 0 2.096.092 2.892.092.186 0 .5 0 .5-.354 0-.372-.333-.392-.852-.409-1.205-.074-1.205-.726-1.205-1.71v-4.373c0-.802 0-1.135.463-1.248.297-.074 1.613-.074 2.447-.074.705 0 2.522 0 2.91 1.544.057.15.242.875.315 1.08.056.146.167.464.446.446.333-.019.333-.335.333-.54l-.111-1.339c-.056-.652-.056-1.135-.056-1.394 0-.43.093-2.365.093-2.755 0-.28-.093-.465-.333-.485-.26-.018-.39.223-.445.465-.353 1.47-.761 2.102-3.059 2.102-.425 0-2.113 0-2.54-.054-.37-.056-.443-.093-.443-1.618V3.121c0-1.34.482-1.395 1.445-1.395 4.412 0 4.783.614 5.617 2.512.111.241.222.577.538.577.315 0 .315-.447.315-.54V1.224c-.019-.372-.055-.521-.501-.521zM38.577 17.242c-.556-.074-.817-.578-1.224-1.267l-1.91-3.383c-.444-.82-.684-.95-.945-1.1.668-.129 2.688-.612 2.688-2.92 0-.688-.297-3.088-3.763-3.088-.593 0-3.188.074-3.726.074-.24 0-1.205-.074-1.391-.074-.649 0-.723 0-.723.279 0 .28.278.297.705.317.963.055.963.595.963 1.396v8.354c0 .817 0 1.339-.963 1.414-.409.017-.705.037-.705.317 0 .296.26.279.408.279.352 0 1.947-.074 2.28-.074.074 0 1.984.074 2.354.074.148 0 .409.017.409-.261 0-.297-.279-.317-.705-.334-.982-.058-.982-.597-.982-1.414v-3.536c0-.334.037-.446.37-.446.89 0 .984.074 1.41.93l2.372 4.483c.222.41.296.596.648.596h2.577c.13 0 .333-.037.333-.242.039-.225-.073-.3-.48-.374zm-6.23-5.916c-.981 0-.981-.039-.981-.726V7.29c0-.764.018-1.247.927-1.247 2.427 0 2.706 2.102 2.706 2.81 0 2.474-1.947 2.474-2.652 2.474zM50.886 17.242c-.555-.074-.816-.578-1.224-1.267l-1.91-3.383c-.444-.82-.684-.95-.944-1.1.667-.129 2.687-.612 2.687-2.92 0-.688-.296-3.088-3.762-3.088-.594 0-3.188.074-3.727.074-.24 0-1.205-.074-1.39-.074-.65 0-.724 0-.724.279 0 .28.278.297.705.317.963.055.963.595.963 1.396v8.354c0 .817 0 1.339-.963 1.414-.409.017-.705.037-.705.317 0 .296.26.279.41.279.351 0 1.945-.074 2.278-.074.074 0 1.985.074 2.355.074.15 0 .408.017.408-.261 0-.297-.279-.317-.705-.334-.982-.058-.982-.597-.982-1.414v-3.536c0-.334.037-.446.37-.446.89 0 .983.074 1.409.93l2.373 4.483c.222.41.296.596.648.596h2.576c.13 0 .334-.037.334-.242.02-.225-.072-.3-.48-.374zm-6.229-5.916c-.983 0-.983-.039-.983-.726V7.29c0-.764.019-1.247.927-1.247 2.427 0 2.707 2.102 2.707 2.81-.018 2.474-1.946 2.474-2.65 2.474zM105.832 17.242c-.556-.074-.816-.578-1.223-1.267l-1.892-3.365c-.445-.819-.686-.949-.944-1.098.666-.132 2.688-.615 2.688-2.922 0-.687-.297-3.088-3.765-3.088-.593 0-3.188.075-3.725.075-.242 0-1.206-.075-1.39-.075-.65 0-.723 0-.723.28 0 .278.277.297.703.316.964.055.964.596.964 1.395v8.354c0 .817 0 1.339-.964 1.413-.408.02-.703.038-.703.318 0 .296.258.28.407.28.352 0 1.947-.076 2.28-.076.074 0 1.984.075 2.354.075.149 0 .408.017.408-.26 0-.298-.277-.316-.704-.336-.981-.055-.981-.596-.981-1.413v-3.534c0-.337.035-.448.369-.448.89 0 .983.076 1.41.93l2.372 4.485c.222.41.296.594.648.594h2.577c.13 0 .333-.037.333-.242.02-.242-.073-.317-.499-.391zm-6.229-5.916c-.98 0-.98-.039-.98-.726V7.29c0-.764.017-1.247.925-1.247 2.43 0 2.707 2.102 2.707 2.81 0 2.474-1.947 2.474-2.652 2.474z" transform="translate(-281 -1821) translate(189 1811.5) translate(92 10)"/>
                </g>
            </g>
        </g>
    </g>
</svg>
