<svg xmlns="http://www.w3.org/2000/svg" width="85" height="20" viewBox="0 0 85 20">
    <g fill="none" fill-rule="evenodd">
        <g fill="#424242" fill-rule="nonzero">
            <g>
                <path d="M84.562 90.827l-.245-2.888h-1.2c-1.915 0-2.91-1.509-2.91-2.956v-6.522H76.81v12.366h3.216l.073-1.543c.675 1.058 1.855 1.543 3.311 1.543h1.15zM61.024 78.461h-3.398V85c0 1.369-.12 3.092-2.08 3.092-1.886 0-2.638-1.339-2.638-2.897V78.46h-3.397v12.366h3.15l.072-1.58c.675 1.058 1.932 1.882 3.786 1.882 3.424 0 4.505-2.403 4.505-4.903V78.46zM48.029 81.35l-.237-2.814c-.815-.214-1.539-.292-2.414-.292-3.202 0-4.13 1.444-4.13 4.344v11.726h3.398v-3.487h3.38l-.234-2.887h-3.146v-5.1c0-1.165.324-1.793 1.539-1.793.528 0 1.116.062 1.844.303m-7.897 9.477l-.263-2.888h-.923c-1.912 0-2.863-1.507-2.863-2.956v-6.522h-3.398v12.366h3.217l.067-1.543c.679 1.058 1.86 1.543 3.317 1.543h.846zm-22.78-10.996c-2.305-1.211-4.608-1.91-7.648-1.824C4.067 78.177 0 81.617 0 87.428c0 5.786 4.106 9.483 9.706 9.57 2.84.043 5.38-.665 7.365-2.388l-2.392-2.378c-1.228 1.03-3.036 1.631-5.196 1.535-3.525-.161-5.649-2.679-5.696-6.14-.046-3.75 2.294-6.335 5.951-6.43 1.721-.042 2.954.185 4.021.656v3.834H9.958l.256 3.144h7.137v-9zm57.942 3.638h-9.316c.265-1.58 1.529-2.53 3.102-2.574 1.53-.04 2.386.414 3.505 1.528l2.217-1.662c-1.575-1.908-3.466-2.602-5.62-2.602-3.788 0-6.626 2.604-6.626 6.486 0 3.877 2.824 6.484 6.484 6.484 4.035 0 6.254-2.403 6.254-6.668v-.992zm-3.404 2.585c-.105 1.563-1.295 2.55-2.935 2.487-1.65-.061-2.75-1.118-2.977-2.487h5.912zm-41.344.505V78.46H27.55l-.074 1.22c-.92-1.12-2.411-1.522-3.948-1.522-2.313 0-4.5 1.121-4.545 3.733-.069 4.105 4.7 4.396 7.695 4.396h.599v.163c0 1.357-.914 2.09-2.635 2.09-1.235 0-2.454-.487-3.356-1.317l-1.96 1.957c1.78 1.419 3.632 1.948 5.605 1.948 3.897 0 5.615-1.77 5.615-4.57m-3.27-2.705h-.472c-1.609-.003-4.434-.081-4.423-1.735.015-2.329 4.896-1.589 4.896 1.22v.515zM81.912 79.9c0 .787.605 1.38 1.38 1.38.765 0 1.37-.593 1.37-1.38 0-.801-.605-1.392-1.37-1.392-.775 0-1.38.591-1.38 1.392m1.38-1.669c.922 0 1.709.704 1.709 1.669 0 .955-.787 1.657-1.71 1.657-.93 0-1.718-.702-1.718-1.657 0-.965.787-1.669 1.718-1.669m-.358 1.536h.34l.515-.832h.332l-.555.845c.287.035.505.186.505.529 0 .378-.228.546-.69.546h-.742v-1.92h.295v.832zm0 .247v.593h.403c.206 0 .425-.044.425-.281 0-.295-.224-.312-.473-.312h-.355z" transform="translate(-189 -1889) translate(189 1811.5) matrix(1 0 0 -1 0 175)"/>
            </g>
        </g>
    </g>
</svg>
