<svg xmlns="http://www.w3.org/2000/svg" width="55" height="40" viewBox="0 0 55 40">
    <g fill="none" fill-rule="evenodd">
        <g fill="#424242" fill-rule="nonzero">
            <g>
                <path d="M21.212 18.797c2.965.037 4.858 1.327 6.03 3.088l.122.19c.958 1.54 1.395 3.401 1.525 5.076l.02.34-.015-.28c-.121-1.697-.552-3.585-1.53-5.145 1.336-1.962 3.424-3.212 6.374-3.212h.149c3.1.038 5.03 1.45 6.18 3.335l-.007.009.081-.123c1.288-1.891 3.276-3.121 6.062-3.207l.313-.005h.139c6.198.086 7.72 5.647 7.72 9.484 0 4.643-2.134 10.024-8.221 10.024-2.663 0-4.881-1.184-6.264-3.354l-.031-.053-.133.2c-1.298 1.891-3.34 3.207-6.35 3.207-2.662 0-4.88-1.184-6.263-3.354-.364-.57-.671-1.21-.914-1.914l-.03-.09.03.091c.242.707.55 1.348.914 1.923-1.29 1.932-3.35 3.278-6.402 3.278-2.366 0-4.382-.931-5.77-2.66l-.173-.224c-.166.225-.34.432-.534.629-1.995 2.094-4.844 2.226-6.384 2.226-.984 0-4.018 0-6.096-2.131C.658 34.972.36 33.75.084 32.438l-.056-.263 5.428-.569c0 .455 0 .92.13 1.355.325 1.061 1.197 1.573 2.292 1.573 1.94 0 2.71-1.44 2.71-2.909 0-1.686-.9-2.908-2.794-2.908-1.419 0-1.875.632-2.188 1.118l-.048.075-4.547-.568 1.012-10.11h13.575l-.194 1.884.169-.177c1.335-1.356 3.198-2.178 5.639-2.142zm25.239 3.77c-.613 0-1.392.323-1.893 1.166-.696 1.194-.798 3.61-.798 5.457 0 1.005.028 2.037.241 3.013.343 1.44 1.141 2.34 2.338 2.34 2.237 0 2.636-3.05 2.645-5.703 0-.843-.056-2.88-.325-4.046-.269-1.165-.928-2.226-2.208-2.226zm-12.787-.009c-.612 0-1.382.322-1.893 1.166-.696 1.193-.798 3.61-.798 5.457 0 1.004.028 2.037.242 3.013.343 1.44 1.14 2.34 2.338 2.34 2.236 0 2.635-3.041 2.635-5.704 0-.843-.056-2.88-.325-4.045-.25-1.166-.918-2.227-2.199-2.227zm-12.656-.057c-.613 0-1.383.323-1.893 1.166-.696 1.194-.798 3.61-.798 5.457 0 1.004.028 2.037.241 3.013.343 1.44 1.141 2.34 2.338 2.34 2.237 0 2.636-3.041 2.645-5.704 0-.843-.056-2.88-.325-4.045s-.928-2.227-2.208-2.227zm-6.95.616H5.91l-.27 2.634c.186-.104.372-.208.557-.294.798-.331 1.995-.52 2.979-.52 1.379 0 2.647.306 3.71.868l.261.145.09-.43c.16-.713.374-1.393.648-2.027l.172-.376zM4.853 15.794L4.853 12.355 6.866 12.355 6.866 3.714 4.853 3.714 4.853.009 15.607.009 15.607 3.714 13.584 3.714 13.584 12.345 15.607 12.345 15.607 15.794zM25.313 15.794v-3.44h1.559v-3.6c0-1.08-.76-1.572-1.735-1.572-1.234 0-2.171.928-2.171 2.188v2.985h1.605v3.439h-8.416v-3.44h1.522V7.164h-1.522v-3.44h6.634v2.378c.112-.085.214-.217.306-.331 1.216-1.421 2.599-1.923 4.427-1.923 2.56 0 4.639 1.06 4.639 3.96v4.548h1.364v3.439h-8.212z" transform="translate(-189 -1811) translate(189 1811.5)"/>
                <path d="M46.896 8.811l-4.537.512c-.056-1.289-.316-2.644-1.847-2.644-1.948 0-2.106 1.658-2.106 3.25v.029c0 1.591.148 3.25 2.106 3.25 1.02 0 1.93-.598 1.93-1.867h4.519l-.037.398c-.742 3.752-4.064 4.339-6.458 4.339-3.749 0-7.433-1.885-7.433-6.149v.01c0-4.273 3.684-6.15 7.433-6.15 0 .01 5.883-.378 6.43 5.022" transform="translate(-189 -1811) translate(189 1811.5)"/>
                <path d="M50.413 13.89c0 1.08-.854 1.951-1.912 1.951-1.057 0-1.911-.872-1.911-1.952s.854-1.951 1.911-1.951c1.058 0 1.912.871 1.912 1.951" transform="translate(-189 -1811) translate(189 1811.5)"/>
            </g>
        </g>
    </g>
</svg>
